<svg xmlns="http://www.w3.org/2000/svg" width="84" height="68" fill="#000"  xmlns:v="https://vecta.io/nano"><path d="M3.254 50.123a2.57 2.57 0 0 0 .636-.076c.204-.051.356-.127.509-.228s.255-.228.356-.381c.076-.152.127-.33.127-.533 0-.254-.051-.457-.178-.635s-.28-.33-.458-.457c-.204-.127-.407-.254-.662-.355l-.764-.33c-.255-.102-.509-.229-.764-.381-.255-.127-.484-.305-.662-.482-.204-.178-.356-.406-.458-.685-.127-.254-.178-.584-.178-.939 0-.406.076-.787.229-1.091.153-.33.382-.609.662-.837s.636-.406 1.044-.533.84-.178 1.349-.178a3.44 3.44 0 0 1 .484.025c.178.025.382.025.585.051l.662.102.687.152-.28 1.32-.102.051c-.204-.102-.407-.178-.611-.228a2.66 2.66 0 0 0-.56-.152 1.91 1.91 0 0 0-.509-.076c-.153 0-.305-.025-.433-.025-.204 0-.407.025-.585.076a1.91 1.91 0 0 0-.458.203c-.127.102-.229.203-.28.355-.076.127-.102.305-.102.482 0 .254.051.457.178.635a1.67 1.67 0 0 0 .484.457c.204.127.433.254.687.355l.764.33a10.27 10.27 0 0 1 .764.355c.255.127.484.279.687.482.204.178.356.406.484.66s.178.558.178.914c0 .406-.076.761-.255 1.117s-.407.634-.713.888-.662.457-1.094.584c-.433.152-.916.228-1.425.228-.204 0-.433 0-.662-.025l-.713-.102-.738-.178c-.255-.076-.484-.152-.713-.254l.28-1.32.127-.051a13.33 13.33 0 0 0 1.298.558c.331.102.713.152 1.094.152zm9.57 0c.407 0 .789-.102 1.12-.279s.611-.431.84-.736a3.36 3.36 0 0 0 .534-1.091 4.3 4.3 0 0 0 .178-1.294c0-.482-.076-.939-.204-1.37s-.331-.787-.585-1.117c-.255-.305-.534-.558-.891-.736a2.36 2.36 0 0 0-1.12-.279 2.36 2.36 0 0 0-1.12.279 2.59 2.59 0 0 0-.84.736c-.229.304-.407.685-.534 1.091s-.178.837-.178 1.294a4.82 4.82 0 0 0 .204 1.37 3 3 0 0 0 .585 1.091c.254.305.534.558.891.736.331.228.713.305 1.12.305zm-.229 1.218c-.407 0-.814-.051-1.196-.127-.382-.101-.738-.228-1.069-.406s-.636-.381-.916-.66c-.28-.254-.509-.558-.713-.888a3.81 3.81 0 0 1-.458-1.091c-.102-.406-.153-.837-.153-1.294 0-.482.051-.939.178-1.345.102-.431.28-.812.484-1.193.204-.355.458-.685.764-.964s.611-.533.967-.736.738-.355 1.171-.457a5.35 5.35 0 0 1 1.298-.152 6.17 6.17 0 0 1 1.196.127 3.88 3.88 0 0 1 1.069.406c.331.178.636.381.916.635a4.05 4.05 0 0 1 .713.888c.204.33.356.685.458 1.091s.153.837.153 1.294c0 .482-.051.939-.178 1.345-.102.431-.28.812-.484 1.193a4.62 4.62 0 0 1-.738.964c-.28.279-.611.533-.967.736s-.738.355-1.171.457c-.407.127-.865.178-1.324.178zm6.77-9.187h1.858v5.736c0 .381.051.711.178.99s.255.508.458.711c.178.178.407.33.636.406.229.102.484.127.738.127a2.37 2.37 0 0 0 .738-.127c.229-.102.433-.228.611-.406s.305-.406.407-.685.153-.609.153-.964v-5.786h1.527v5.634a4.04 4.04 0 0 1-.229 1.345c-.153.431-.382.812-.687 1.142s-.713.609-1.171.787c-.484.203-1.018.305-1.654.305-.534 0-1.018-.076-1.476-.228-.433-.152-.814-.381-1.12-.685s-.56-.66-.713-1.091c-.178-.431-.255-.939-.255-1.523v-5.685zm13.566 1.218v7.867h-1.858v-7.867h-2.901l.229-1.218h7.483l-.229 1.218h-2.723zm6.389 7.867h-1.858v-9.086h1.858v3.756h4.149v-3.756h1.858v9.086h-1.858v-4.086H39.32v4.086zm13.159-8.426h2.011l1.451 5.71.254 1.32h.127l.255-1.32 1.476-6.37h1.604l-2.393 9.086H55.05l-1.323-5.076-.306-1.497h-.127l-.305 1.497-1.324 5.076h-2.265l-2.392-9.086h1.96l1.476 6.37.229 1.32h.102l.28-1.32 1.425-5.71zm14.406 8.426h-5.574v-9.086h5.727l-.229 1.218h-3.64v2.563h3.207l-.204 1.167h-3.003v2.893h3.945l-.229 1.244zm4.581-1.117a2.57 2.57 0 0 0 .636-.076c.204-.051.356-.127.509-.228s.254-.228.356-.381c.076-.152.127-.33.127-.533 0-.254-.051-.457-.178-.635s-.28-.33-.484-.457-.407-.254-.662-.355l-.764-.33a5.37 5.37 0 0 1-.764-.381c-.254-.127-.484-.305-.662-.482-.204-.178-.356-.406-.484-.685-.127-.254-.178-.584-.178-.939 0-.406.076-.787.229-1.091.153-.33.382-.609.662-.837s.636-.406 1.044-.533.84-.178 1.349-.178a3.44 3.44 0 0 1 .483.025c.178 0 .382.025.585.051l.662.102.662.152-.28 1.32-.102.051c-.204-.102-.407-.178-.611-.228s-.382-.127-.585-.152c-.178-.051-.356-.076-.509-.076-.153-.025-.305-.025-.407-.025-.204 0-.407.025-.585.076s-.331.127-.458.203c-.127.102-.229.203-.28.355-.076.127-.102.305-.102.482 0 .254.051.457.178.635s.28.33.484.457.433.254.662.355l.764.33c.254.101.509.228.764.355s.484.279.662.482c.204.178.356.406.484.66s.178.558.178.914a2.4 2.4 0 0 1-.254 1.117c-.153.355-.407.634-.713.888s-.662.457-1.094.584c-.433.152-.891.228-1.425.228-.204 0-.433 0-.662-.025l-.713-.102-.738-.178a5.9 5.9 0 0 1-.713-.254l.28-1.32.127-.051a13.34 13.34 0 0 0 1.298.558c.433.102.814.152 1.222.152zm9.061-6.751v7.867H78.67v-7.867h-2.901l.229-1.218h7.508l-.229 1.218h-2.749zM10.992 60.224c.229 0 .433-.025.636-.076s.356-.127.509-.228.255-.228.356-.381c.076-.152.127-.33.127-.533 0-.254-.051-.457-.178-.634s-.28-.33-.484-.457-.407-.254-.662-.355l-.764-.33-.764-.355a2.61 2.61 0 0 1-.662-.482 1.63 1.63 0 0 1-.458-.685c-.127-.254-.178-.584-.178-.939 0-.406.076-.787.229-1.091.153-.33.382-.609.662-.837s.636-.406 1.018-.533c.407-.127.84-.178 1.349-.178.127 0 .305 0 .484.025a4.98 4.98 0 0 1 .585.051l.662.102.687.152-.28 1.32-.102.051c-.204-.102-.407-.178-.611-.228a2.65 2.65 0 0 0-.56-.152c-.178-.051-.356-.076-.509-.076-.153-.025-.305-.025-.407-.025-.204 0-.407.025-.585.076s-.331.127-.458.203c-.127.102-.229.203-.28.355-.076.127-.102.305-.102.482 0 .254.051.457.178.635a1.67 1.67 0 0 0 .484.457c.204.127.433.254.687.355l.764.33c.254.101.509.228.763.355s.484.279.687.482c.204.178.356.406.483.66s.178.558.178.914c0 .406-.076.761-.255 1.117s-.407.634-.713.888-.662.457-1.094.584c-.433.152-.916.228-1.425.228-.204 0-.433 0-.662-.025l-.713-.102-.738-.178a5.88 5.88 0 0 1-.713-.254l.28-1.32.127-.051c.458.228.891.406 1.298.558.356.051.738.127 1.12.127zm9.087-6.776v7.867H18.22v-7.867h-2.876l.229-1.218h7.458l-.229 1.218h-2.723zm9.137 7.867l-.687-2.233h-3.36l-.687 2.233h-1.604l3.054-9.086h2.189l3.054 9.086h-1.96zM25.5 57.94h2.672l-.942-3.172-.331-1.32h-.127l-.331 1.32-.942 3.172zm9.137-5.71v9.086h-1.883V52.23h1.883zm3.894 9.086h-1.527V52.23h2.571l3.461 5.38.662 1.269h.127l-.076-1.421v-5.203h1.527v9.06h-1.858l-4.225-6.522-.611-1.218h-.127l.076 1.37v6.37zm14.304 0h-5.167V52.23h1.858v7.867h3.538l-.229 1.218zm7.534 0h-5.6V52.23h5.752l-.229 1.218h-3.64v2.563h3.207l-.204 1.167h-3.003v2.893h3.945l-.229 1.244zm4.581-1.091c.229 0 .433-.025.636-.076s.356-.127.509-.228.254-.228.356-.381c.076-.152.127-.33.127-.533 0-.254-.051-.457-.178-.634s-.28-.33-.484-.457-.407-.254-.662-.355l-.764-.33c-.254-.102-.509-.228-.764-.355a2.61 2.61 0 0 1-.662-.482 1.96 1.96 0 0 1-.484-.685c-.127-.254-.178-.584-.178-.939 0-.406.076-.787.229-1.091.153-.33.382-.609.662-.837s.636-.406 1.044-.533.84-.178 1.349-.178c.127 0 .305 0 .484.025a4.98 4.98 0 0 1 .585.051l.662.102.662.152-.28 1.32-.102.051a2.99 2.99 0 0 0-.611-.228c-.204-.076-.382-.127-.56-.152-.178-.051-.356-.076-.509-.076s-.305-.025-.407-.025c-.204 0-.407.025-.585.076a1.91 1.91 0 0 0-.458.203c-.127.102-.229.203-.28.355-.076.127-.102.305-.102.482 0 .254.051.457.178.635a1.67 1.67 0 0 0 .484.457 4.35 4.35 0 0 0 .687.355l.764.33a10.27 10.27 0 0 1 .764.355c.255.127.484.279.662.482.204.178.356.406.484.66s.178.558.178.914a2.4 2.4 0 0 1-.254 1.117c-.153.355-.407.634-.713.888s-.662.457-1.094.584c-.433.152-.916.228-1.425.228-.204 0-.433 0-.662-.025l-.713-.102-.738-.178c-.255-.076-.484-.152-.713-.254l.28-1.32.127-.051a13.35 13.35 0 0 0 1.298.558c.382.051.764.127 1.171.127zm7.432 0c.229 0 .433-.025.636-.076s.356-.127.509-.228.255-.228.356-.381c.076-.152.127-.33.127-.533 0-.254-.051-.457-.178-.634a1.67 1.67 0 0 0-.484-.457c-.204-.127-.407-.254-.662-.355l-.763-.33-.764-.355a2.61 2.61 0 0 1-.662-.482 1.63 1.63 0 0 1-.458-.685c-.127-.254-.178-.584-.178-.939 0-.406.076-.787.229-1.091.153-.33.382-.609.662-.837s.636-.406 1.018-.533c.407-.127.84-.178 1.349-.178.127 0 .305 0 .484.025.178 0 .382.025.585.051l.662.102.662.152-.28 1.32-.102.051c-.204-.102-.407-.178-.611-.228a2.49 2.49 0 0 0-.585-.152c-.178-.051-.356-.076-.509-.076s-.305-.025-.433-.025c-.204 0-.407.025-.585.076s-.331.127-.458.203c-.127.102-.229.203-.28.355-.076.127-.102.305-.102.482 0 .254.051.457.178.635a1.67 1.67 0 0 0 .484.457c.204.127.433.254.662.355l.763.33c.255.101.509.228.764.355s.484.279.662.482.356.406.484.66.178.558.178.914c0 .406-.076.761-.255 1.117-.153.355-.407.634-.713.888s-.662.457-1.094.584c-.433.152-.891.228-1.425.228-.204 0-.433 0-.662-.025l-.713-.102-.738-.178c-.255-.076-.484-.152-.713-.254l.28-1.32.127-.051c.458.228.891.406 1.298.558l1.247.127z"/><path d="M.734 65.096a.23.23 0 0 0 .076.178c.051.051.102.102.178.152.076.025.153.076.229.102s.178.051.28.076.204.076.28.102a.37.37 0 0 1 .229.152c.153.127.229.279.229.508a.51.51 0 0 1-.076.279c-.051.076-.102.152-.204.228-.178.127-.407.178-.687.178s-.509-.076-.713-.203c-.127-.076-.204-.152-.204-.203s.025-.101.076-.127c0 0 .025-.025.051-.025s.051 0 .051.025c.025.025.051.025.076.051s.076.051.102.076l.153.076a1 1 0 0 0 .356.076c.127 0 .204 0 .28-.025l.204-.076a.33.33 0 0 0 .178-.305c0-.152-.076-.279-.229-.355-.076-.025-.153-.076-.229-.102s-.178-.051-.28-.076a1.26 1.26 0 0 1-.28-.101c-.102-.05-.178-.076-.255-.152-.153-.127-.229-.279-.229-.457a.51.51 0 0 1 .076-.279 1.61 1.61 0 0 1 .204-.228c.153-.127.356-.178.611-.178.356 0 .636.102.84.33.025.025.025.051.025.051v.051c0 .025 0 .025-.025.051s-.051.051-.076.051-.076-.025-.102-.076a.94.94 0 0 0-.255-.152c-.127-.051-.255-.076-.356-.076a.74.74 0 0 0-.407.102c-.102.076-.178.178-.178.305zm5.65 1.802c0 .101-.102.127-.331.127-.153 0-.28-.051-.356-.127-.076-.102-.127-.254-.127-.482v-.99h-.204c-.025 0-.076 0-.102-.025s-.025-.051-.025-.076 0-.051.025-.076.051-.025.102-.025h.229l.025-.508c0-.051.025-.076.051-.076.025-.025.051-.025.076-.025s.051 0 .076.025.025.051.025.076v.508h.331c.025 0 .076.025.076.025.025.025.025.051.025.076s0 .051-.025.076-.051.025-.076.025H5.85v.812c0 .228 0 .381.025.431a.35.35 0 0 0 .076.102c.025.025.076.025.127.025h.178c.025 0 .051 0 .076.025.051.025.051.051.051.076zm4.658-.838c0 .076-.025.102-.102.102H9.668c0 .305.127.533.382.609.076.025.153.025.229.025a.79.79 0 0 0 .534-.203c.051-.025.102-.025.153 0 .025.025.025.025.025.051 0 .051 0 .076-.025.102-.178.178-.407.254-.687.254-.255 0-.458-.076-.611-.254-.178-.178-.255-.406-.255-.685 0-.254.076-.482.229-.635a.79.79 0 0 1 .636-.279c.28 0 .484.076.636.254a3.79 3.79 0 0 1 .127.66zm-1.4-.076h1.12c0-.178-.076-.305-.153-.406-.102-.102-.229-.152-.407-.152-.153 0-.28.051-.382.178-.102.076-.153.229-.178.381zm6.159.076c0 .076-.025.102-.102.102h-1.273c.025.305.127.533.382.609.076.025.153.025.229.025a.79.79 0 0 0 .534-.203c.051-.025.102-.025.127 0s.025.025.025.051c0 .051 0 .076-.025.102-.178.178-.407.254-.687.254-.255 0-.458-.076-.611-.254-.178-.178-.255-.406-.255-.685 0-.254.076-.482.204-.635a.79.79 0 0 1 .636-.279c.28 0 .484.076.636.254.102.178.178.406.178.66zm-1.4-.076h1.12c0-.178-.076-.305-.153-.406-.102-.102-.229-.152-.407-.152-.153 0-.28.051-.382.178-.102.076-.153.229-.178.381zm4.581.863v-2.259c0-.051.026-.076.051-.102s.051-.025.076-.025h.051c.025 0 .025.025.051.025.025.025.051.051.051.102v2.259c0 .051-.025.076-.051.102s-.076.025-.102.025-.076 0-.102-.025c-.026 0-.026-.051-.026-.102zm8.094-.939h.204v-.152c0-.254-.127-.355-.407-.355-.127 0-.204 0-.255.025l-.229.102c-.051.025-.076.051-.102.051s-.051 0-.076-.025-.026-.051-.026-.076.026-.051.051-.076c.127-.152.356-.203.636-.203.331 0 .535.102.636.33a.91.91 0 0 1 .051.279v1.066c0 .051-.026.076-.051.102-.026 0-.051.025-.102.025-.025 0-.076 0-.102-.025 0-.025-.025-.051-.025-.102v-.178c-.076.152-.204.254-.407.305-.051.025-.127.025-.204.025s-.153 0-.229-.025c-.051-.025-.127-.051-.178-.101-.127-.102-.178-.228-.178-.381 0-.406.331-.609.993-.609zm.204.381v-.152h-.178-.204a.56.56 0 0 0-.204.025c-.051.025-.102.025-.153.076-.102.051-.153.127-.178.254 0 .102.051.178.127.228.051.051.153.076.28.076a.55.55 0 0 0 .356-.127c.101-.076.153-.203.153-.381zm3.563.584V65.35c0-.051.026-.076.051-.102s.051-.025.102-.025c.076 0 .102.025.127.076s.025.127.025.228c.026-.102.127-.178.255-.254.102-.051.229-.102.331-.102s.204.025.28.051.153.076.204.127c.127.127.178.305.178.533v.99c0 .051-.026.076-.051.102s-.076.025-.102.025-.076 0-.102-.025-.051-.051-.051-.102v-1.015a.44.44 0 0 0-.127-.33c-.076-.076-.178-.102-.28-.102a.63.63 0 0 0-.382.127c-.102.102-.153.228-.153.431v.888c0 .051-.025.076-.051.102s-.076.025-.102.025-.076 0-.102-.025c-.051-.025-.051-.076-.051-.102zm6.058 0v-.178c-.153.228-.356.33-.636.33-.255 0-.433-.102-.56-.279s-.178-.381-.178-.634c0-.406.127-.711.407-.838a.58.58 0 0 1 .28-.076c.102 0 .178 0 .229.025.051 0 .127.025.178.051.127.051.204.127.28.254v-.914c0-.051.025-.076.051-.102s.076-.025.102-.025.076 0 .102.025.051.051.051.102v2.284c0 .051-.026.076-.051.101s-.051.025-.076.025h-.051c-.025 0-.025-.025-.051-.025-.051-.051-.076-.101-.076-.127zm-.56-.051c.382 0 .56-.254.56-.736 0-.305-.102-.533-.28-.609-.076-.025-.153-.051-.255-.051s-.178.025-.255.051c-.076.051-.127.102-.178.152a.88.88 0 0 0-.127.457c0 .279.076.482.204.609.102.076.204.127.331.127zm9.036-2.081l.865 2.081v.051c0 .025 0 .025-.025.051 0 .025-.025.025-.051.051a.19.19 0 0 1-.102.051c-.076 0-.127-.025-.153-.102l-.178-.584H44.46l-.229.558c-.025.076-.076.101-.127.101-.076 0-.127-.025-.153-.076 0-.025-.025-.025-.025-.051s0-.025.025-.051l.84-2.081c.051-.152.127-.254.204-.279.025 0 .051 0 .076-.025.051 0 .102.025.153.051.076.051.127.127.153.254zm-.28-.025l-.56 1.37h1.094l-.534-1.37zm4.276 2.132v-2.259c0-.051.025-.076.051-.102s.051-.025.076-.025h.051c.026 0 .026.025.051.025.025.025.051.051.051.102v2.259c0 .051-.026.076-.051.102s-.076.025-.102.025-.076 0-.102-.025c-.025 0-.025-.051-.025-.102zm5.09-1.472v1.497c0 .051-.025.076-.051.102s-.051.025-.076.025h-.051c-.026 0-.026-.025-.051-.025-.026-.025-.051-.051-.051-.102v-.178a.47.47 0 0 1-.407.305c-.051.025-.127.025-.204.025s-.153 0-.229-.025a.55.55 0 0 1-.204-.127c-.127-.127-.178-.305-.178-.533v-.99c0-.051.025-.076.051-.102s.051-.025.102-.025c.025 0 .076.025.102.025.025.025.051.051.051.102v1.015c0 .178.025.279.102.355s.178.102.305.102a.52.52 0 0 0 .484-.279c.025-.076.051-.152.051-.228v-.939c0-.051.026-.076.051-.102s.076-.025.102-.025.076.025.102.025c-.025.025 0 .051 0 .102zm4.734.178c.153-.254.356-.381.636-.381s.484.127.585.355c.025.102.051.203.051.305v.99c0 .051-.026.076-.051.101s-.051.025-.102.025c-.025 0-.076 0-.102-.025s-.051-.051-.051-.101v-1.015a.44.44 0 0 0-.127-.33c-.076-.076-.178-.102-.28-.102-.229 0-.407.102-.484.279-.025.076-.051.152-.051.254v.914c0 .051-.025.076-.051.101s-.051.025-.102.025c-.025 0-.076 0-.102-.025s-.051-.051-.051-.101v-1.015a.44.44 0 0 0-.127-.33c-.076-.076-.153-.102-.255-.102s-.178 0-.229.025-.127.051-.178.102c-.102.102-.153.228-.153.406v.888c0 .051-.026.076-.051.102s-.051.025-.102.025c-.026 0-.076 0-.102-.025s-.051-.051-.051-.102v-1.523c0-.051.025-.076.051-.102s.051-.025.076-.025.051 0 .076.025c.025 0 .025.025.051.025.025.025.051.051.051.102v.178a.72.72 0 0 1 .229-.254.81.81 0 0 1 .356-.076c.204 0 .382.076.484.203.102.102.153.152.153.203zm4.912-.939c0 .051-.026.102-.051.127s-.076.051-.153.051-.102-.025-.153-.051c-.025-.025-.051-.076-.051-.127s.026-.076.051-.102.076-.051.153-.051.102.025.153.051c.025.025.051.051.051.102zm-.331 2.233V65.35c0-.051.025-.076.051-.102s.051-.051.076-.051.051 0 .051.025c.025 0 .025.025.051.025.025.025.051.051.051.102v1.497c0 .051-.026.076-.051.102s-.076.025-.102.025-.076 0-.102-.025c-.025 0-.025-.051-.025-.102zm3.589.025V65.35c0-.051.025-.076.051-.102s.051-.025.102-.025c.076 0 .102.025.127.076s.026.127 0 .228c.026-.102.127-.178.255-.254.102-.051.229-.102.331-.102s.204.025.28.051.153.076.204.127c.127.127.178.305.178.533v.99c0 .051-.025.076-.051.102s-.076.025-.102.025-.076 0-.102-.025c-.051-.025-.051-.076-.051-.102v-1.015a.44.44 0 0 0-.127-.33c-.076-.076-.178-.102-.28-.102a.63.63 0 0 0-.382.127c-.102.102-.153.228-.153.431v.888c0 .051-.025.076-.051.102s-.076.025-.102.025-.076 0-.102-.025-.025-.076-.025-.102zm5.141-2.259a.19.19 0 0 1-.051.127c-.026.025-.076.051-.153.051s-.102-.025-.153-.051c-.025-.025-.051-.076-.051-.127s.026-.076.051-.102.076-.051.153-.051c.051 0 .102.025.153.051.025.025.051.051.051.102zm-.356 2.233V65.35c0-.051.026-.076.051-.102s.051-.051.076-.051.051 0 .051.025c.025 0 .025.025.051.025.025.025.051.051.051.102v1.497c0 .051-.025.076-.051.102s-.076.025-.102.025-.076 0-.102-.025c0 0-.026-.051-.026-.102zm5.116-1.472v1.497c0 .051-.025.076-.051.102s-.051.025-.076.025h-.051c-.026 0-.026-.025-.051-.025-.025-.025-.051-.051-.051-.102v-.178a.47.47 0 0 1-.407.305c-.051.025-.127.025-.204.025s-.153 0-.229-.025a.55.55 0 0 1-.204-.127c-.127-.127-.178-.305-.178-.533v-.99c0-.051.025-.076.051-.102s.051-.025.102-.025c.025 0 .076.025.102.025.025.025.051.051.051.102v1.015c0 .178.025.279.102.355s.178.102.305.102a.52.52 0 0 0 .484-.279c.025-.076.051-.152.051-.228v-.939c0-.051.025-.076.051-.102s.076-.025.102-.025.076.025.102.025c-.025.025 0 .051 0 .102zm4.734.178c.153-.254.356-.381.636-.381s.484.127.585.355c.025.102.051.203.051.305v.99c0 .051-.026.076-.051.101s-.051.025-.102.025c-.026 0-.076 0-.102-.025s-.051-.051-.051-.101v-1.015a.44.44 0 0 0-.127-.33c-.076-.076-.178-.102-.28-.102-.229 0-.407.102-.484.279-.025.076-.051.152-.051.254v.914c0 .051-.025.076-.051.101s-.051.025-.102.025c-.025 0-.076 0-.102-.025s-.051-.051-.051-.101v-1.015a.44.44 0 0 0-.127-.33c-.076-.076-.153-.102-.254-.102s-.178 0-.229.025-.127.051-.178.102c-.102.102-.153.228-.153.406v.888c0 .051-.025.076-.051.102s-.051.025-.102.025c-.025 0-.076 0-.102-.025.026.051.026 0 .026-.025V65.35c0-.051.025-.076.051-.102s.051-.025.102-.025c.025 0 .051 0 .076.025.025 0 .025.025.051.025.025.025.051.051.051.102v.178a.72.72 0 0 1 .229-.254.81.81 0 0 1 .356-.076c.204 0 .382.076.484.203a.42.42 0 0 0 .051.127zM56.45 15.125l4.963 2.69v15.608l-4.963-2.69V15.125zm-6.796-9.568l4.963 2.69V34.54l-4.963-2.69V5.557zM36.063.202l4.963 2.69v33.881l-4.963-2.69V.202zm6.795 12.689l4.963 2.69v20.1l-4.963-2.69v-20.1zM22.471 22.13l4.963 2.69v14.212l-4.963-2.69V22.13zm6.796-10.964l4.963 2.69v24.059l-4.963-2.69V11.166z"/></svg>